<svg width="110" height="48" viewBox="0 0 110 48" fill="none" xmlns="http://www.w3.org/2000/svg"><path d="M34.43 33.7569C34.5857 33.7569 34.7328 33.8266 34.8452 33.9397L35.9612 35.1669C35.347 35.9329 34.5684 36.5421 33.6774 36.9512C32.6479 37.3864 31.5406 37.5953 30.4247 37.5692C29.3779 37.5866 28.3398 37.3864 27.3709 36.986C26.4886 36.6117 25.7013 36.0547 25.0525 35.3497C24.3951 34.6273 23.8933 33.7743 23.5819 32.8518C23.2272 31.8334 23.0542 30.7542 23.0715 29.6749C23.0628 28.5869 23.2445 27.5077 23.6165 26.4893C23.9625 25.558 24.4816 24.7138 25.165 24.0001C25.8397 23.2951 26.6443 22.7468 27.544 22.3725C28.5128 21.9721 29.5509 21.7806 30.6063 21.7893C31.6185 21.7719 32.622 21.9547 33.5649 22.3464C34.3781 22.6858 35.1307 23.1819 35.7622 23.7999L34.8106 25.1316C34.7501 25.2186 34.6809 25.2969 34.5944 25.3579C34.4819 25.4275 34.3608 25.4623 34.231 25.4536C34.1186 25.4536 34.0061 25.4188 33.9023 25.3579C33.7898 25.2969 33.6687 25.2186 33.5303 25.1316C33.3919 25.0445 33.2448 24.9401 33.0718 24.8356C32.8728 24.7225 32.6739 24.618 32.4576 24.5397C32.1981 24.444 31.9213 24.3656 31.6531 24.3134C31.307 24.2525 30.9524 24.2177 30.5977 24.2264C29.9575 24.2264 29.3174 24.3482 28.7291 24.5919C28.1668 24.8356 27.6737 25.2012 27.2671 25.6625C26.8432 26.1586 26.5145 26.7418 26.3155 27.3684C26.082 28.1082 25.9695 28.8829 25.9782 29.6662C25.9609 30.4495 26.0906 31.2416 26.3415 31.9814C26.5578 32.608 26.8865 33.1912 27.3277 33.6873C27.7343 34.1486 28.236 34.5055 28.7983 34.7492C29.3693 35.0016 29.9921 35.1234 30.615 35.1147C30.9697 35.1147 31.3157 35.0973 31.6617 35.0538C31.9559 35.0103 32.2413 34.9493 32.5268 34.8536C32.7863 34.7579 33.0372 34.6447 33.2794 34.4968C33.5303 34.3401 33.7639 34.1573 33.9801 33.9571C34.0493 33.8962 34.1186 33.844 34.2051 33.8005C34.2743 33.7656 34.3608 33.7395 34.4386 33.7395L34.43 33.7569Z" fill="black"></path><path d="M38.2966 27.9776C39.5164 26.8374 41.1254 26.2194 42.7864 26.2455C43.366 26.2368 43.9456 26.3413 44.4819 26.5589C44.9577 26.7504 45.3903 27.0463 45.745 27.4293C46.0996 27.8122 46.3678 28.2735 46.5322 28.7696C46.7138 29.318 46.809 29.9011 46.8004 30.4755V37.395H45.6152C45.4162 37.4037 45.2259 37.3689 45.0442 37.2818C44.8885 37.1774 44.7761 37.012 44.7242 36.8293L44.4906 36.0372C44.2397 36.2722 43.9715 36.4898 43.6861 36.69C43.4352 36.8728 43.1584 37.0294 42.8729 37.16C42.5874 37.2905 42.2846 37.395 41.9732 37.4559C41.6272 37.5255 41.2725 37.5604 40.9178 37.5604C40.4853 37.5604 40.0614 37.4994 39.6462 37.3689C39.2742 37.2557 38.9368 37.0643 38.6427 36.8118C38.3572 36.5594 38.1323 36.2374 37.9852 35.8805C37.8208 35.4715 37.743 35.0363 37.7516 34.5924C37.7516 34.3139 37.7949 34.0354 37.89 33.7655C37.9938 33.4783 38.1409 33.2172 38.3399 32.9822C38.5735 32.7124 38.8503 32.4774 39.1444 32.2772C39.525 32.0335 39.9316 31.842 40.3642 31.7028C40.9092 31.52 41.4801 31.3894 42.0424 31.3024C42.7691 31.1892 43.5044 31.1283 44.2311 31.1109V30.4668C44.2743 29.8837 44.11 29.3092 43.7639 28.8392C43.4179 28.4737 42.9248 28.2822 42.4231 28.317C42.0684 28.3083 41.7137 28.3605 41.3763 28.465C41.1254 28.552 40.8746 28.6652 40.641 28.8044C40.4334 28.9263 40.2344 29.0394 40.07 29.1439C39.897 29.2483 39.6981 29.3005 39.4991 29.2918C39.3347 29.2918 39.1704 29.2483 39.0319 29.1439C38.9108 29.0481 38.807 28.935 38.7292 28.8044L38.262 27.9602L38.2966 27.9776ZM44.2657 32.7211C43.6255 32.7472 42.994 32.8081 42.3711 32.9213C41.9473 32.9909 41.532 33.1128 41.1341 33.2868C40.8659 33.4 40.641 33.5828 40.468 33.8091C40.1392 34.34 40.2258 35.0276 40.6756 35.4541C40.987 35.663 41.359 35.7761 41.7396 35.7587C42.2154 35.7674 42.6912 35.6717 43.1238 35.4628C43.5563 35.2365 43.9456 34.9318 44.2657 34.5663V32.7211Z" fill="black"></path><path d="M56.9133 28.5869C56.8614 28.6826 56.7835 28.7696 56.6884 28.8306C56.6019 28.8828 56.4981 28.9002 56.3943 28.9002C56.2559 28.9002 56.1174 28.8567 55.9877 28.7958C55.8406 28.7261 55.6762 28.6478 55.4859 28.5521C55.2783 28.4563 55.062 28.378 54.8371 28.3083C54.5516 28.23 54.2662 28.1952 53.972 28.2039C53.5395 28.1778 53.1156 28.2909 52.7609 28.5346C52.4841 28.7348 52.3197 29.0569 52.3284 29.3963C52.3284 29.6139 52.4062 29.8315 52.5533 29.9882C52.7263 30.1622 52.9339 30.3102 53.1589 30.4059C53.4357 30.5365 53.7212 30.6496 54.0066 30.7367C54.3181 30.8324 54.6468 30.9369 54.9669 31.05C55.287 31.1632 55.6157 31.2937 55.9358 31.433C56.2472 31.5722 56.5327 31.7637 56.7835 31.99C57.3372 32.4774 57.64 33.1911 57.614 33.9222C57.614 34.4183 57.5275 34.9145 57.3372 35.3758C57.1555 35.8196 56.8701 36.2113 56.5067 36.5333C56.1088 36.8728 55.6503 37.1339 55.1485 37.2906C54.543 37.4821 53.9201 37.5778 53.2886 37.5604C52.9253 37.5604 52.5533 37.5256 52.1986 37.4559C51.8526 37.395 51.5066 37.2993 51.1778 37.1774C50.8664 37.0643 50.5636 36.9163 50.2695 36.7509C50.01 36.603 49.7591 36.4202 49.5342 36.22L50.1397 35.2191C50.2089 35.1059 50.3041 35.0102 50.4166 34.9406C50.5377 34.8709 50.6761 34.8361 50.8145 34.8448C50.9789 34.8448 51.1346 34.8971 51.273 34.9841C51.4201 35.0798 51.5844 35.1756 51.7747 35.28C51.991 35.4019 52.2159 35.4976 52.4408 35.5846C52.7523 35.6891 53.0897 35.7326 53.4184 35.7239C53.6866 35.7239 53.9547 35.6891 54.2143 35.6108C54.4132 35.5498 54.6035 35.4541 54.7593 35.3235C54.8977 35.2104 55.0015 35.0624 55.0707 34.8971C55.1399 34.7404 55.1745 34.575 55.1745 34.4009C55.1745 34.1659 55.1053 33.9396 54.9496 33.7743C54.7766 33.5915 54.5689 33.4522 54.344 33.3478C54.0672 33.2172 53.7817 33.1041 53.4876 33.0258C53.1675 32.93 52.8388 32.8256 52.5101 32.7124C52.1727 32.5993 51.8439 32.4687 51.5325 32.3121C51.2211 32.1641 50.9356 31.9639 50.6761 31.7289C50.4166 31.4852 50.2176 31.1893 50.0792 30.8672C49.9148 30.4756 49.837 30.0578 49.8543 29.6313C49.8543 29.1874 49.9408 28.7522 50.1138 28.3519C50.2955 27.9428 50.555 27.5859 50.8924 27.29C51.2643 26.968 51.6969 26.7243 52.164 26.5676C52.735 26.3761 53.3319 26.2804 53.9288 26.2978C54.6208 26.2891 55.3129 26.4196 55.9617 26.6721C56.5327 26.8983 57.0517 27.2291 57.4929 27.6556L56.9133 28.6043V28.5869Z" fill="black"></path><path d="M60.3828 27.9776C61.6026 26.8374 63.2116 26.2194 64.8726 26.2455C65.4522 26.2368 66.0318 26.3413 66.5682 26.5589C67.0526 26.7504 67.4851 27.0463 67.8312 27.4293C68.1859 27.8122 68.4454 28.2735 68.6184 28.7696C68.8001 29.318 68.8952 29.9011 68.8866 30.4755V37.395H67.7014C67.5024 37.4037 67.3121 37.3689 67.1305 37.2818C66.9747 37.1774 66.8623 37.012 66.8104 36.8293L66.5768 36.0372C66.3259 36.2722 66.0578 36.4898 65.7723 36.69C65.5214 36.8728 65.2446 37.0294 64.9591 37.16C64.6736 37.2905 64.3709 37.395 64.0594 37.4559C63.7134 37.5255 63.3587 37.5604 63.004 37.5604C62.5715 37.5604 62.1476 37.4994 61.741 37.3689C61.369 37.2557 61.0316 37.0643 60.7375 36.8118C60.452 36.5594 60.2271 36.2374 60.0887 35.8805C59.9243 35.4715 59.8465 35.0363 59.8551 34.5924C59.8551 34.3139 59.8984 34.0354 59.9936 33.7655C60.0974 33.4783 60.2444 33.2172 60.4434 32.9822C60.677 32.7124 60.9538 32.4774 61.2479 32.2772C61.6286 32.0335 62.0351 31.842 62.4677 31.7028C63.0127 31.52 63.5836 31.3894 64.1459 31.3024C64.8726 31.1892 65.6079 31.1283 66.3432 31.1109V30.4668C66.3865 29.8837 66.2221 29.3092 65.8761 28.8392C65.5301 28.4737 65.037 28.2822 64.5352 28.317C64.1805 28.3083 63.8259 28.3605 63.4885 28.465C63.2376 28.552 62.9867 28.6652 62.7532 28.8044C62.5369 28.9263 62.3466 29.0394 62.1822 29.1439C62.0092 29.2483 61.8102 29.3005 61.6113 29.2918C61.4469 29.2918 61.2825 29.2396 61.1528 29.1439C61.0316 29.0568 60.9278 28.935 60.8413 28.8044L60.3742 27.9602L60.3828 27.9776ZM66.3519 32.7211C65.7117 32.7472 65.0802 32.8081 64.4487 32.9213C64.0248 32.9909 63.6096 33.1128 63.2116 33.2868C62.9435 33.4 62.7186 33.5828 62.5455 33.8091C62.2168 34.34 62.3033 35.0276 62.7532 35.4541C63.0646 35.663 63.4366 35.7761 63.8172 35.7587C64.293 35.7674 64.7688 35.6717 65.2013 35.4628C65.6339 35.2365 66.0232 34.9318 66.3432 34.5663V32.7211H66.3519Z" fill="black"></path><path d="M91.2999 21.9634V37.395H88.7999V27.4293C88.7999 27.0289 88.8172 26.6025 88.8604 26.1325L84.2495 34.8971C84.0679 35.2887 83.6786 35.5412 83.2461 35.5238H82.8481C82.4156 35.5325 82.0263 35.2887 81.8446 34.8971L77.1818 26.1063C77.1991 26.3413 77.2164 26.5763 77.2337 26.8026C77.2511 27.0289 77.2511 27.2378 77.2511 27.4293V37.395H74.751V21.9634H76.8964C77.0261 21.9634 77.1299 21.9634 77.2251 21.9721C77.3116 21.9721 77.3981 21.9982 77.476 22.0243C77.5538 22.0591 77.623 22.1026 77.6749 22.1636C77.7441 22.2419 77.8047 22.3289 77.848 22.416L82.4156 30.9891C82.5367 31.2154 82.6492 31.4504 82.753 31.6941C82.8568 31.9378 82.9519 32.1815 83.0557 32.4426C83.1509 32.1815 83.2547 31.9291 83.3585 31.6767C83.4623 31.4243 83.5748 31.198 83.6959 30.9717L88.1943 22.4247C88.2376 22.3289 88.2981 22.2419 88.376 22.1723C88.4365 22.1113 88.5057 22.0591 88.5836 22.033C88.6614 22.0069 88.748 21.9895 88.8345 21.9808C88.9296 21.9721 89.0334 21.9721 89.1632 21.9721H91.3086L91.2999 21.9634Z" fill="black"></path><path d="M98.2554 23.2602C98.2554 23.4778 98.2121 23.6954 98.1169 23.9043C98.0304 24.0958 97.9007 24.2786 97.7536 24.4265C97.5979 24.5745 97.4162 24.6963 97.2259 24.7834C97.0183 24.8704 96.7934 24.9226 96.5685 24.9139C96.3522 24.9139 96.1273 24.8704 95.9283 24.7834C95.738 24.6963 95.5563 24.5745 95.4092 24.4265C95.2622 24.2786 95.1411 24.0958 95.0546 23.9043C94.9681 23.7041 94.9248 23.4865 94.9248 23.2602C94.9248 22.8163 95.0978 22.3812 95.4092 22.0678C95.5563 21.9199 95.738 21.798 95.9283 21.711C96.1273 21.6239 96.3435 21.5717 96.5685 21.5804C96.7934 21.5804 97.0183 21.6239 97.2259 21.711C97.4249 21.798 97.6065 21.9199 97.7536 22.0678C97.9093 22.2245 98.0304 22.3986 98.1169 22.5987C98.2121 22.8076 98.2554 23.0339 98.2554 23.2602ZM97.892 26.4458V37.395H95.2795V26.4458H97.892Z" fill="black"></path><path d="M101.352 27.9776C102.572 26.8374 104.181 26.2194 105.842 26.2455C106.422 26.2368 107.001 26.3413 107.538 26.5589C108.022 26.7504 108.446 27.0463 108.801 27.4293C109.155 27.8122 109.424 28.2735 109.588 28.7696C109.77 29.318 109.865 29.9011 109.856 30.4755V37.395H108.671C108.472 37.4037 108.282 37.3689 108.1 37.2818C107.944 37.1774 107.832 37.012 107.78 36.8293L107.546 36.0372C107.296 36.2722 107.027 36.4898 106.742 36.69C106.491 36.8728 106.214 37.0294 105.929 37.16C105.643 37.2905 105.34 37.395 105.029 37.4559C104.683 37.5255 104.328 37.5604 103.974 37.5604C103.541 37.5604 103.117 37.4994 102.711 37.3689C102.339 37.2557 102.001 37.0643 101.707 36.8118C101.422 36.5594 101.197 36.2374 101.05 35.8805C100.885 35.4715 100.807 35.0363 100.816 34.5924C100.816 34.3139 100.859 34.0354 100.954 33.7655C101.058 33.4783 101.205 33.2172 101.404 32.9822C101.638 32.7124 101.915 32.4774 102.209 32.2772C102.589 32.0335 102.996 31.842 103.429 31.7028C103.974 31.52 104.545 31.3894 105.116 31.3024C105.842 31.1892 106.578 31.1283 107.313 31.1109V30.4668C107.356 29.8837 107.192 29.3092 106.846 28.8392C106.5 28.4737 106.007 28.2822 105.505 28.317C105.15 28.3083 104.795 28.3605 104.458 28.465C104.207 28.552 103.956 28.6652 103.723 28.8044C103.515 28.9263 103.316 29.0394 103.152 29.1439C102.979 29.2483 102.78 29.3005 102.581 29.2918C102.416 29.2918 102.252 29.2483 102.114 29.1439C101.993 29.0481 101.889 28.935 101.811 28.8044L101.352 27.9602V27.9776ZM107.321 32.7211C106.681 32.7472 106.05 32.8081 105.418 32.9213C104.994 32.9909 104.579 33.1128 104.181 33.2868C103.913 33.4 103.688 33.5828 103.515 33.8091C103.186 34.34 103.273 35.0276 103.723 35.4541C104.034 35.663 104.406 35.7761 104.787 35.7587C105.263 35.7674 105.738 35.6717 106.171 35.4628C106.603 35.2365 106.993 34.9318 107.313 34.5663V32.7211H107.321Z" fill="black"></path><path d="M25.451 11.136L4.48145 18.421V21.3106H4.4901V36.8554H18.0372V33.9658H7.34486V20.3184L25.451 14.0256L36.1607 17.7334V14.8438L25.451 11.136Z" fill="#79C04D"></path><path d="M2.85476 17.3069L25.4506 9.48228L36.1603 13.1988V10.3004L25.4506 6.59265L0 15.4095V15.6793V18.2991V41.4075H18.0369V38.5178H2.85476V17.3069Z" fill="#79C04D"></path></svg>